<svg xmlns="http://www.w3.org/2000/svg" width="84" height="84" viewBox="0 0 84 84">
  <g id="img" transform="translate(-854 -1983)">
    <g id="長方形_1133" data-name="長方形 1133" transform="translate(854 1983)" fill="#fff" stroke="#ff9a9a" stroke-width="4">
      <rect width="84" height="84" rx="42" stroke="none"/>
      <rect x="2" y="2" width="80" height="80" rx="40" fill="none"/>
    </g>
    <g id="グループ_671" data-name="グループ 671" transform="translate(797.778 1720.022)">
      <g id="グループ_670" data-name="グループ 670" transform="translate(56.899 287.978)">
        <g id="グループ_614" data-name="グループ 614" transform="translate(16.203 1.01)">
          <g id="グループ_612" data-name="グループ 612" transform="translate(11.296)">
            <path id="パス_683" data-name="パス 683" d="M177.539,292.408v10.917l9.591,2.962v-9.76Z" transform="translate(-177.539 -292.408)" fill="#bcada6"/>
          </g>
          <g id="グループ_613" data-name="グループ 613">
            <path id="パス_684" data-name="パス 684" d="M139.279,292.408l-11.3,3.641v9.942l11.3-2.665Z" transform="translate(-127.983 -292.408)" fill="#f4e0d6"/>
          </g>
        </g>
        <g id="グループ_623" data-name="グループ 623" transform="translate(1.214 14.579)">
          <g id="グループ_615" data-name="グループ 615" transform="translate(0 5.201)">
            <path id="パス_685" data-name="パス 685" d="M62.225,406.9l.806.1v-.213Z" transform="translate(-62.225 -399.484)" fill="#756b67"/>
            <path id="パス_686" data-name="パス 686" d="M62.225,386.635l.806.127v-.244Z" transform="translate(-62.225 -383.836)" fill="#756b67"/>
            <path id="パス_687" data-name="パス 687" d="M62.225,427.3l.806.065v-.145Z" transform="translate(-62.225 -415.259)" fill="#756b67"/>
            <path id="パス_688" data-name="パス 688" d="M63.031,397.7l-.806.117v-2.661l.806-.138Z" transform="translate(-62.225 -390.4)" fill="#bcada6"/>
            <path id="パス_689" data-name="パス 689" d="M63.031,418.134l-.806.079v-2.66l.806-.1Z" transform="translate(-62.225 -406.175)" fill="#bcada6"/>
            <path id="パス_690" data-name="パス 690" d="M63.031,377.434l-.806.117V374.89l.806-.138Z" transform="translate(-62.225 -374.752)" fill="#bcada6"/>
            <path id="パス_691" data-name="パス 691" d="M63.031,438.566l-.806.042v-2.661l.806-.063Z" transform="translate(-62.225 -421.949)" fill="#bcada6"/>
          </g>
          <path id="パス_692" data-name="パス 692" d="M74.751,351.936l-8.991,2.226V379h8.991Z" transform="translate(-64.954 -351.936)" fill="#d3c2ba"/>
          <path id="パス_693" data-name="パス 693" d="M63.031,459.586h-.806V456.34l.806-.027Z" transform="translate(-62.225 -432.521)" fill="#bcada6"/>
          <g id="グループ_616" data-name="グループ 616" transform="translate(1.796 21.946)">
            <path id="パス_694" data-name="パス 694" d="M70.1,451.474v-2.921l7.214-.34v3.129Z" transform="translate(-70.104 -448.213)" fill="#fff"/>
            <path id="パス_695" data-name="パス 695" d="M72.675,453.11l-1.417.031v-2.282l1.417-.062Z" transform="translate(-70.995 -450.208)" fill="#9a9b9b"/>
            <path id="パス_696" data-name="パス 696" d="M79.92,452.823l-1.463.031v-2.319l1.463-.064Z" transform="translate(-76.553 -449.957)" fill="#a6a7a7"/>
            <path id="パス_697" data-name="パス 697" d="M87.4,452.526l-1.512.032V450.2l1.512-.066Z" transform="translate(-82.293 -449.697)" fill="#a6a7a7"/>
            <path id="パス_698" data-name="パス 698" d="M95.137,452.218l-1.563.033v-2.4l1.563-.069Z" transform="translate(-88.224 -449.427)" fill="#a6a7a7"/>
          </g>
          <g id="グループ_617" data-name="グループ 617" transform="translate(1.796 6.832)">
            <path id="パス_699" data-name="パス 699" d="M70.1,386.172v-2.921l7.214-1.344v3.129Z" transform="translate(-70.104 -381.906)" fill="#fff"/>
            <path id="パス_700" data-name="パス 700" d="M72.675,390.184l-1.417.228V388.13l1.417-.259Z" transform="translate(-70.995 -386.511)" fill="#9a9b9b"/>
            <path id="パス_701" data-name="パス 701" d="M79.92,388.866l-1.463.235v-2.319l1.463-.268Z" transform="translate(-76.553 -385.464)" fill="#a6a7a7"/>
            <path id="パス_702" data-name="パス 702" d="M87.4,387.5l-1.512.243v-2.356l1.512-.277Z" transform="translate(-82.293 -384.382)" fill="#a6a7a7"/>
            <path id="パス_703" data-name="パス 703" d="M95.137,386.1l-1.563.251v-2.4l1.563-.286Z" transform="translate(-88.224 -383.263)" fill="#a6a7a7"/>
          </g>
          <g id="グループ_618" data-name="グループ 618" transform="translate(1.796 1.431)">
            <path id="パス_704" data-name="パス 704" d="M70.1,361.5v-1.587l7.214-1.7v1.7Z" transform="translate(-70.104 -358.214)" fill="#fff"/>
            <path id="パス_705" data-name="パス 705" d="M72.675,366.343l-1.417.317v-.944l1.417-.33Z" transform="translate(-70.995 -363.751)" fill="#9a9b9b"/>
            <path id="パス_706" data-name="パス 706" d="M79.92,364.634l-1.463.327V364l1.463-.341Z" transform="translate(-76.553 -362.42)" fill="#a6a7a7"/>
            <path id="パス_707" data-name="パス 707" d="M87.4,362.867l-1.512.338v-.975l1.512-.352Z" transform="translate(-82.293 -361.043)" fill="#a6a7a7"/>
            <path id="パス_708" data-name="パス 708" d="M95.137,361.043l-1.563.35V360.4l1.563-.364Z" transform="translate(-88.224 -359.622)" fill="#a6a7a7"/>
          </g>
          <g id="グループ_619" data-name="グループ 619" transform="translate(1.796 11.87)">
            <path id="パス_709" data-name="パス 709" d="M70.1,407.939v-2.921l7.214-1.01v3.129Z" transform="translate(-70.104 -404.008)" fill="#fff"/>
            <path id="パス_710" data-name="パス 710" d="M72.675,411.159l-1.417.162v-2.282l1.417-.194Z" transform="translate(-70.995 -407.743)" fill="#a6a7a7"/>
            <path id="パス_711" data-name="パス 711" d="M79.92,410.184l-1.463.167v-2.319l1.463-.2Z" transform="translate(-76.553 -406.96)" fill="#a6a7a7"/>
            <path id="パス_712" data-name="パス 712" d="M87.4,409.177l-1.512.173v-2.356l1.512-.207Z" transform="translate(-82.293 -406.153)" fill="#a6a7a7"/>
            <path id="パス_713" data-name="パス 713" d="M95.137,408.136l-1.563.179v-2.4l1.563-.214Z" transform="translate(-88.224 -405.318)" fill="#a6a7a7"/>
          </g>
          <g id="グループ_620" data-name="グループ 620" transform="translate(1.796 16.908)">
            <path id="パス_714" data-name="パス 714" d="M70.1,429.707v-2.921l7.214-.675v3.129Z" transform="translate(-70.104 -426.11)" fill="#fff"/>
            <path id="パス_715" data-name="パス 715" d="M72.675,432.135l-1.417.1v-2.281l1.417-.128Z" transform="translate(-70.995 -428.975)" fill="#a6a7a7"/>
            <path id="パス_716" data-name="パス 716" d="M79.92,431.5l-1.463.1v-2.318l1.463-.132Z" transform="translate(-76.553 -428.46)" fill="#a6a7a7"/>
            <path id="パス_717" data-name="パス 717" d="M87.4,430.852l-1.512.1V428.6l1.512-.136Z" transform="translate(-82.293 -427.926)" fill="#a6a7a7"/>
            <path id="パス_718" data-name="パス 718" d="M95.137,430.178l-1.563.106v-2.4l1.563-.141Z" transform="translate(-88.224 -427.374)" fill="#a6a7a7"/>
          </g>
          <g id="グループ_621" data-name="グループ 621" transform="translate(1.796 16.908)">
            <path id="パス_719" data-name="パス 719" d="M70.1,429.707v-2.921l7.214-.675v3.129Z" transform="translate(-70.104 -426.11)" fill="#fff"/>
            <path id="パス_720" data-name="パス 720" d="M72.675,432.133l-1.417.1v-2.282l1.417-.128Z" transform="translate(-70.995 -428.974)" fill="#9a9b9b"/>
            <path id="パス_721" data-name="パス 721" d="M79.92,431.5l-1.463.1v-2.319l1.463-.132Z" transform="translate(-76.553 -428.457)" fill="#a6a7a7"/>
            <path id="パス_722" data-name="パス 722" d="M87.4,430.85l-1.512.1V428.6l1.512-.137Z" transform="translate(-82.293 -427.924)" fill="#a6a7a7"/>
            <path id="パス_723" data-name="パス 723" d="M95.137,430.176l-1.563.106v-2.4l1.563-.142Z" transform="translate(-88.224 -427.372)" fill="#a6a7a7"/>
          </g>
          <g id="グループ_622" data-name="グループ 622" transform="translate(1.796 11.87)">
            <path id="パス_724" data-name="パス 724" d="M70.1,407.939v-2.921l7.214-1.01v3.129Z" transform="translate(-70.104 -404.008)" fill="#fff"/>
            <path id="パス_725" data-name="パス 725" d="M72.675,411.159l-1.417.162v-2.282l1.417-.194Z" transform="translate(-70.995 -407.743)" fill="#9a9b9b"/>
            <path id="パス_726" data-name="パス 726" d="M79.92,410.184l-1.463.167v-2.319l1.463-.2Z" transform="translate(-76.553 -406.96)" fill="#a6a7a7"/>
            <path id="パス_727" data-name="パス 727" d="M87.4,409.177l-1.512.173v-2.356l1.512-.207Z" transform="translate(-82.293 -406.153)" fill="#a6a7a7"/>
            <path id="パス_728" data-name="パス 728" d="M95.137,408.136l-1.563.179v-2.4l1.563-.214Z" transform="translate(-88.224 -405.318)" fill="#a6a7a7"/>
          </g>
        </g>
        <g id="グループ_634" data-name="グループ 634" transform="translate(4.42 7.02)">
          <path id="パス_729" data-name="パス 729" d="M100.464,353.4H76.291V325.332l24.172-6.556Z" transform="translate(-76.291 -318.775)" fill="#e9d6cd"/>
          <g id="グループ_630" data-name="グループ 630" transform="translate(0.845 8.809)">
            <g id="グループ_624" data-name="グループ 624" transform="translate(0 14.198)">
              <path id="パス_730" data-name="パス 730" d="M80,423.923v-3.295l8.974-.921v3.579Z" transform="translate(-79.998 -419.708)" fill="#fff"/>
              <path id="パス_731" data-name="パス 731" d="M83.158,427.059l-1.745.13v-2.575l1.745-.173Z" transform="translate(-81.09 -423.362)" fill="#a6a7a7"/>
              <path id="パス_732" data-name="パス 732" d="M92.1,426.2l-1.813.135v-2.625l1.813-.18Z" transform="translate(-87.939 -422.662)" fill="#a6a7a7"/>
              <path id="パス_733" data-name="パス 733" d="M101.387,425.311l-1.887.141v-2.677l1.887-.187Z" transform="translate(-95.055 -421.931)" fill="#a6a7a7"/>
              <path id="パス_734" data-name="パス 734" d="M111.053,424.384l-1.964.146V421.8l1.964-.195Z" transform="translate(-102.458 -421.172)" fill="#a6a7a7"/>
            </g>
            <g id="グループ_625" data-name="グループ 625" transform="translate(10.999 12.855)">
              <path id="パス_735" data-name="パス 735" d="M128.252,418.6v-3.643l11.066-1.135v3.993Z" transform="translate(-128.252 -413.817)" fill="#fff"/>
              <path id="パス_736" data-name="パス 736" d="M132.121,422.362l-2.137.159v-2.848l2.137-.211Z" transform="translate(-129.589 -418.175)" fill="#a6a7a7"/>
              <path id="パス_737" data-name="パス 737" d="M143.083,421.307l-2.231.166v-2.909l2.231-.221Z" transform="translate(-137.98 -417.312)" fill="#a6a7a7"/>
              <path id="パス_738" data-name="パス 738" d="M154.526,420.207l-2.33.173v-2.973l2.33-.231Z" transform="translate(-146.738 -416.411)" fill="#a6a7a7"/>
              <path id="パス_739" data-name="パス 739" d="M166.48,419.057l-2.436.181V416.2l2.436-.241Z" transform="translate(-155.885 -415.47)" fill="#a6a7a7"/>
            </g>
            <g id="グループ_626" data-name="グループ 626" transform="translate(0 8.436)">
              <path id="パス_740" data-name="パス 740" d="M80,399.1v-3.295l8.974-1.377v3.579Z" transform="translate(-79.998 -394.432)" fill="#fff"/>
              <path id="パス_741" data-name="パス 741" d="M83.158,403.325l-1.745.219v-2.575l1.745-.262Z" transform="translate(-81.09 -399.277)" fill="#a6a7a7"/>
              <path id="パス_742" data-name="パス 742" d="M92.1,402l-1.813.227V399.6l1.813-.272Z" transform="translate(-87.939 -398.216)" fill="#a6a7a7"/>
              <path id="パス_743" data-name="パス 743" d="M101.387,400.625l-1.887.236v-2.677l1.887-.283Z" transform="translate(-95.055 -397.111)" fill="#a6a7a7"/>
              <path id="パス_744" data-name="パス 744" d="M111.053,399.194l-1.964.246v-2.73l1.964-.294Z" transform="translate(-102.458 -395.963)" fill="#a6a7a7"/>
            </g>
            <g id="グループ_627" data-name="グループ 627" transform="translate(10.999 6.428)">
              <path id="パス_745" data-name="パス 745" d="M128.252,390.962v-3.643l11.066-1.7v3.992Z" transform="translate(-128.252 -385.622)" fill="#fff"/>
              <path id="パス_746" data-name="パス 746" d="M132.121,396.069l-2.137.268v-2.847l2.137-.32Z" transform="translate(-129.589 -391.449)" fill="#a6a7a7"/>
              <path id="パス_747" data-name="パス 747" d="M143.083,394.441l-2.231.28v-2.909l2.231-.335Z" transform="translate(-137.98 -390.143)" fill="#a6a7a7"/>
              <path id="パス_748" data-name="パス 748" d="M154.526,392.74l-2.33.292V390.06l2.33-.349Z" transform="translate(-146.738 -388.779)" fill="#a6a7a7"/>
              <path id="パス_749" data-name="パス 749" d="M166.48,390.964l-2.436.305v-3.039l2.436-.365Z" transform="translate(-155.885 -387.354)" fill="#a6a7a7"/>
            </g>
            <g id="グループ_628" data-name="グループ 628" transform="translate(0 2.674)">
              <path id="パス_750" data-name="パス 750" d="M80,374.282v-3.295l8.974-1.833v3.579Z" transform="translate(-79.998 -369.154)" fill="#fff"/>
              <path id="パス_751" data-name="パス 751" d="M83.158,379.589l-1.745.308v-2.575l1.745-.35Z" transform="translate(-81.09 -375.189)" fill="#a6a7a7"/>
              <path id="パス_752" data-name="パス 752" d="M92.1,377.8l-1.813.32v-2.625l1.813-.364Z" transform="translate(-87.939 -373.768)" fill="#a6a7a7"/>
              <path id="パス_753" data-name="パス 753" d="M101.387,375.937l-1.887.332v-2.677l1.887-.379Z" transform="translate(-95.055 -372.289)" fill="#a6a7a7"/>
              <path id="パス_754" data-name="パス 754" d="M111.053,374l-1.964.346v-2.73l1.964-.394Z" transform="translate(-102.458 -370.75)" fill="#a6a7a7"/>
            </g>
            <g id="グループ_629" data-name="グループ 629" transform="translate(10.999)">
              <path id="パス_755" data-name="パス 755" d="M128.252,363.326v-3.642l11.066-2.26v3.992Z" transform="translate(-128.252 -357.423)" fill="#fff"/>
              <path id="パス_756" data-name="パス 756" d="M132.121,369.773l-2.137.376V367.3l2.137-.43Z" transform="translate(-129.589 -364.718)" fill="#a6a7a7"/>
              <path id="パス_757" data-name="パス 757" d="M143.083,367.573l-2.231.393v-2.909l2.231-.448Z" transform="translate(-137.98 -362.972)" fill="#a6a7a7"/>
              <path id="パス_758" data-name="パス 758" d="M154.526,365.274l-2.33.411v-2.972l2.33-.468Z" transform="translate(-146.738 -361.146)" fill="#a6a7a7"/>
              <path id="パス_759" data-name="パス 759" d="M166.48,362.872l-2.436.429v-3.039l2.436-.489Z" transform="translate(-155.885 -359.238)" fill="#a6a7a7"/>
            </g>
          </g>
          <g id="グループ_631" data-name="グループ 631" transform="translate(0.845 5.307)">
            <path id="パス_760" data-name="パス 760" d="M80,346.171v-1.789l8.974-2.322V344Z" transform="translate(-79.998 -342.06)" fill="#fff"/>
            <path id="パス_761" data-name="パス 761" d="M83.158,352.609l-1.745.428v-1.066l1.745-.445Z" transform="translate(-81.09 -349.368)" fill="#a6a7a7"/>
            <path id="パス_762" data-name="パス 762" d="M92.1,350.29l-1.813.444v-1.086l1.813-.463Z" transform="translate(-87.939 -347.561)" fill="#a6a7a7"/>
            <path id="パス_763" data-name="パス 763" d="M101.387,347.877l-1.887.463v-1.108l1.887-.482Z" transform="translate(-95.055 -345.681)" fill="#a6a7a7"/>
            <path id="パス_764" data-name="パス 764" d="M111.053,345.366l-1.964.481v-1.129l1.964-.5Z" transform="translate(-102.458 -343.725)" fill="#a6a7a7"/>
          </g>
          <g id="グループ_632" data-name="グループ 632" transform="translate(11.844 1.919)">
            <path id="パス_765" data-name="パス 765" d="M128.252,332.037v-1.978l11.066-2.864v2.169Z" transform="translate(-128.252 -327.194)" fill="#fff"/>
            <path id="パス_766" data-name="パス 766" d="M132.121,339.888l-2.137.524v-1.177l2.137-.546Z" transform="translate(-129.589 -336.068)" fill="#a6a7a7"/>
            <path id="パス_767" data-name="パス 767" d="M143.083,337.036l-2.231.546v-1.2l2.231-.569Z" transform="translate(-137.98 -333.847)" fill="#a6a7a7"/>
            <path id="パス_768" data-name="パス 768" d="M154.526,334.055l-2.33.571V333.4l2.33-.595Z" transform="translate(-146.738 -331.524)" fill="#a6a7a7"/>
            <path id="パス_769" data-name="パス 769" d="M166.48,330.94l-2.436.6V330.28l2.436-.622Z" transform="translate(-155.885 -329.097)" fill="#a6a7a7"/>
          </g>
          <g id="グループ_633" data-name="グループ 633" transform="translate(2.238 27.532)">
            <path id="パス_770" data-name="パス 770" d="M86.112,446.65v-6.027l18.686-1.066v7.092Z" transform="translate(-86.112 -439.558)" fill="#d3c2ba"/>
            <path id="パス_771" data-name="パス 771" d="M110.771,449.95v-5.964l2.87-.154v6.118Z" transform="translate(-105.15 -442.858)" fill="#e0e0e0"/>
            <path id="パス_772" data-name="パス 772" d="M114.331,450.413l-2.267.013v-5.014l2.267-.115Z" transform="translate(-106.149 -443.989)" fill="#8e8e8f"/>
            <path id="パス_773" data-name="パス 773" d="M123.548,449.918h-.186V443.8l.186-.009Z" transform="translate(-114.871 -442.826)" fill="#a6a7a7"/>
            <path id="パス_774" data-name="パス 774" d="M98.062,450.5V444.7l2.72-.146V450.5Z" transform="translate(-95.338 -443.412)" fill="#e0e0e0"/>
            <path id="パス_775" data-name="パス 775" d="M101.436,451.327l-2.149.005v-5.25l2.149-.109Z" transform="translate(-96.284 -444.511)" fill="#8e8e8f"/>
            <path id="パス_776" data-name="パス 776" d="M110.173,450.47H110v-5.954l.177-.01Z" transform="translate(-104.552 -443.378)" fill="#a6a7a7"/>
            <path id="パス_777" data-name="パス 777" d="M124.177,449.366v-6.127l3.032-.163v6.29Z" transform="translate(-115.5 -442.274)" fill="#e0e0e0"/>
            <path id="パス_778" data-name="パス 778" d="M127.937,449.846l-2.394.014v-5.152l2.394-.121Z" transform="translate(-116.555 -443.44)" fill="#8e8e8f"/>
            <path id="パス_779" data-name="パス 779" d="M92,451.026v-5.735l1.214-.065v5.8Z" transform="translate(-90.66 -443.934)" fill="#e0e0e0"/>
            <path id="パス_780" data-name="パス 780" d="M93.863,451.829H93.2v-5.183l.664-.034Z" transform="translate(-91.583 -445.006)" fill="#8e8e8f"/>
            <path id="パス_781" data-name="パス 781" d="M153.329,448.43v-6.483l1.553-.083v6.566Z" transform="translate(-138.007 -441.338)" fill="#e0e0e0"/>
            <path id="パス_782" data-name="パス 782" d="M155.706,449.344l-.85,0v-5.861l.85-.043Z" transform="translate(-139.186 -442.556)" fill="#8e8e8f"/>
            <path id="パス_783" data-name="パス 783" d="M97.5,451H97.33v-5.8l.167-.009Z" transform="translate(-94.773 -443.905)" fill="#a6a7a7"/>
            <path id="パス_784" data-name="パス 784" d="M138.342,448.749v-6.3l3.208-.172v6.472Z" transform="translate(-126.437 -441.657)" fill="#e0e0e0"/>
            <path id="パス_785" data-name="パス 785" d="M142.316,449.649l-2.534.007v-5.7l2.534-.129Z" transform="translate(-127.548 -442.857)" fill="#8e8e8f"/>
            <path id="パス_786" data-name="パス 786" d="M137.675,449.332h-.2v-6.29l.2-.01Z" transform="translate(-125.769 -442.239)" fill="#a6a7a7"/>
            <path id="パス_787" data-name="パス 787" d="M152.623,448.712h-.208v-6.472l.208-.011Z" transform="translate(-137.301 -441.62)" fill="#a6a7a7"/>
            <path id="パス_788" data-name="パス 788" d="M121.654,456.284l-.248,0v-1.023l.248-.007Z" transform="translate(-113.361 -451.68)" fill="#d4d5d5"/>
            <path id="パス_789" data-name="パス 789" d="M125.053,456.184l.252-.006v-1.033l-.252.008Z" transform="translate(-116.177 -451.592)" fill="#d4d5d5"/>
          </g>
        </g>
        <g id="グループ_640" data-name="グループ 640" transform="translate(28.593 6.978)">
          <path id="パス_790" data-name="パス 790" d="M187.6,353.256h-5.261V318.59l5.261,1.946Z" transform="translate(-182.336 -318.59)" fill="#b0a39c"/>
          <g id="グループ_635" data-name="グループ 635" transform="translate(2.159 9.144)">
            <path id="パス_791" data-name="パス 791" d="M191.809,362.651V358.7l1.474.421v3.882Z" transform="translate(-191.809 -358.704)" fill="#e0e0e0"/>
            <path id="パス_792" data-name="パス 792" d="M193.935,364.246l-.96-.236v-3.065l.96.269Z" transform="translate(-192.709 -360.434)" fill="#767676"/>
          </g>
          <g id="グループ_636" data-name="グループ 636" transform="translate(2.159 15.499)">
            <path id="パス_793" data-name="パス 793" d="M191.809,390.53v-3.947l1.474.316v3.882Z" transform="translate(-191.809 -386.583)" fill="#e0e0e0"/>
            <path id="パス_794" data-name="パス 794" d="M193.935,391.973l-.96-.167v-3.066l.96.2Z" transform="translate(-192.709 -388.248)" fill="#767676"/>
          </g>
          <g id="グループ_637" data-name="グループ 637" transform="translate(2.159 2.789)">
            <path id="パス_795" data-name="パス 795" d="M191.809,334.773v-3.946l1.474.524v3.882Z" transform="translate(-191.809 -330.827)" fill="#e0e0e0"/>
            <path id="パス_796" data-name="パス 796" d="M193.935,336.518l-.96-.3v-3.066l.96.337Z" transform="translate(-192.709 -332.619)" fill="#767676"/>
          </g>
          <g id="グループ_638" data-name="グループ 638" transform="translate(2.159 21.853)">
            <path id="パス_797" data-name="パス 797" d="M191.809,418.408v-3.946l1.474.211v3.882Z" transform="translate(-191.809 -414.462)" fill="#e0e0e0"/>
            <path id="パス_798" data-name="パス 798" d="M193.935,419.7l-.96-.1v-3.066l.96.132Z" transform="translate(-192.709 -416.063)" fill="#767676"/>
          </g>
          <g id="グループ_639" data-name="グループ 639" transform="translate(2.159 28.208)">
            <path id="パス_799" data-name="パス 799" d="M191.809,446.287v-3.946l1.474.106v3.882Z" transform="translate(-191.809 -442.341)" fill="#e0e0e0"/>
            <path id="パス_800" data-name="パス 800" d="M193.935,447.429l-.96-.031v-3.066l.96.064Z" transform="translate(-192.709 -443.878)" fill="#767676"/>
          </g>
        </g>
        <g id="グループ_664" data-name="グループ 664" transform="translate(33.853 0)">
          <g id="グループ_652" data-name="グループ 652">
            <path id="パス_801" data-name="パス 801" d="M205.415,296.9v32.72h36.05V287.978Z" transform="translate(-205.415 -287.978)" fill="#e9d6cd"/>
            <g id="グループ_651" data-name="グループ 651" transform="translate(1.17 2.625)">
              <g id="グループ_641" data-name="グループ 641" transform="translate(0 32.127)">
                <path id="パス_802" data-name="パス 802" d="M210.545,444.884v-3.843l12.779-.6v4.212Z" transform="translate(-210.545 -440.438)" fill="#fff"/>
                <path id="パス_803" data-name="パス 803" d="M215.015,447.44l-2.468.053v-3.005l2.468-.108Z" transform="translate(-212.091 -443.481)" fill="#a6a7a7"/>
                <path id="パス_804" data-name="パス 804" d="M227.674,446.933l-2.576.055v-3.07l2.576-.113Z" transform="translate(-221.781 -443.038)" fill="#a6a7a7"/>
                <path id="パス_805" data-name="パス 805" d="M240.886,446.4l-2.691.058v-3.137l2.691-.118Z" transform="translate(-231.892 -442.577)" fill="#a6a7a7"/>
                <path id="パス_806" data-name="パス 806" d="M254.69,445.852l-2.813.061v-3.207l2.813-.124Z" transform="translate(-242.455 -442.094)" fill="#a6a7a7"/>
              </g>
              <g id="グループ_642" data-name="グループ 642" transform="translate(0 25.345)">
                <path id="パス_807" data-name="パス 807" d="M210.545,415.722v-3.844l12.779-1.2V414.9Z" transform="translate(-210.545 -410.683)" fill="#fff"/>
                <path id="パス_808" data-name="パス 808" d="M215.015,419.691l-2.468.168v-3.005l2.468-.224Z" transform="translate(-212.091 -415.274)" fill="#a6a7a7"/>
                <path id="パス_809" data-name="パス 809" d="M227.674,418.582l-2.576.175v-3.07l2.576-.233Z" transform="translate(-221.781 -414.366)" fill="#a6a7a7"/>
                <path id="パス_810" data-name="パス 810" d="M240.886,417.421l-2.691.183v-3.137l2.691-.243Z" transform="translate(-231.892 -413.417)" fill="#a6a7a7"/>
                <path id="パス_811" data-name="パス 811" d="M254.69,416.208l-2.813.191v-3.207l2.813-.254Z" transform="translate(-242.455 -412.424)" fill="#a6a7a7"/>
              </g>
              <g id="グループ_643" data-name="グループ 643" transform="translate(0 18.562)">
                <path id="パス_812" data-name="パス 812" d="M210.545,386.562v-3.844l12.779-1.789v4.212Z" transform="translate(-210.545 -380.929)" fill="#fff"/>
                <path id="パス_813" data-name="パス 813" d="M215.015,391.945l-2.468.282v-3.005l2.468-.337Z" transform="translate(-212.091 -387.071)" fill="#a6a7a7"/>
                <path id="パス_814" data-name="パス 814" d="M227.674,390.23l-2.576.295v-3.069l2.576-.352Z" transform="translate(-221.781 -385.696)" fill="#a6a7a7"/>
                <path id="パス_815" data-name="パス 815" d="M240.886,388.438l-2.691.308V385.61l2.691-.368Z" transform="translate(-231.892 -384.258)" fill="#a6a7a7"/>
                <path id="パス_816" data-name="パス 816" d="M254.69,386.565l-2.813.322v-3.206l2.813-.385Z" transform="translate(-242.455 -382.756)" fill="#a6a7a7"/>
              </g>
              <g id="グループ_644" data-name="グループ 644" transform="translate(0 11.78)">
                <path id="パス_817" data-name="パス 817" d="M210.545,357.4v-3.843l12.779-2.382v4.212Z" transform="translate(-210.545 -351.175)" fill="#fff"/>
                <path id="パス_818" data-name="パス 818" d="M215.015,364.2l-2.468.4v-3l2.468-.452Z" transform="translate(-212.091 -358.867)" fill="#a6a7a7"/>
                <path id="パス_819" data-name="パス 819" d="M227.674,361.878l-2.576.414v-3.069l2.576-.472Z" transform="translate(-221.781 -357.024)" fill="#a6a7a7"/>
                <path id="パス_820" data-name="パス 820" d="M240.886,359.457l-2.691.432v-3.136l2.691-.493Z" transform="translate(-231.892 -355.101)" fill="#a6a7a7"/>
                <path id="パス_821" data-name="パス 821" d="M254.69,356.923l-2.813.453v-3.207l2.813-.516Z" transform="translate(-242.455 -353.088)" fill="#a6a7a7"/>
              </g>
              <g id="グループ_645" data-name="グループ 645" transform="translate(15.725 31.227)">
                <path id="パス_822" data-name="パス 822" d="M279.53,441.545v-4.3l16.152-.762v4.763Z" transform="translate(-279.53 -436.486)" fill="#fff"/>
                <path id="パス_823" data-name="パス 823" d="M285.125,444.632l-3.094.067v-3.361l3.094-.136Z" transform="translate(-281.461 -440.126)" fill="#a6a7a7"/>
                <path id="パス_824" data-name="パス 824" d="M301.013,443.995l-3.246.07v-3.441l3.246-.143Z" transform="translate(-293.61 -439.57)" fill="#a6a7a7"/>
                <path id="パス_825" data-name="パス 825" d="M317.685,443.326l-3.409.073v-3.526l3.409-.15Z" transform="translate(-306.356 -438.986)" fill="#a6a7a7"/>
                <path id="パス_826" data-name="パス 826" d="M335.2,442.622l-3.585.077v-3.615l3.585-.158Z" transform="translate(-319.743 -438.37)" fill="#a6a7a7"/>
              </g>
              <g id="グループ_646" data-name="グループ 646" transform="translate(15.725 23.558)">
                <path id="パス_827" data-name="パス 827" d="M279.53,408.652v-4.3l16.152-1.511v4.763Z" transform="translate(-279.53 -402.843)" fill="#fff"/>
                <path id="パス_828" data-name="パス 828" d="M285.125,413.532l-3.094.21v-3.361l3.094-.28Z" transform="translate(-281.461 -408.447)" fill="#a6a7a7"/>
                <path id="パス_829" data-name="パス 829" d="M301.013,412.134l-3.246.221v-3.442l3.246-.293Z" transform="translate(-293.61 -407.302)" fill="#a6a7a7"/>
                <path id="パス_830" data-name="パス 830" d="M317.685,410.664l-3.409.232V407.37l3.409-.308Z" transform="translate(-306.356 -406.1)" fill="#a6a7a7"/>
                <path id="パス_831" data-name="パス 831" d="M335.2,409.119l-3.585.244v-3.615l3.585-.324Z" transform="translate(-319.743 -404.836)" fill="#a6a7a7"/>
              </g>
              <g id="グループ_647" data-name="グループ 647" transform="translate(15.725 15.889)">
                <path id="パス_832" data-name="パス 832" d="M279.53,375.759v-4.3l16.152-2.261v4.763Z" transform="translate(-279.53 -369.2)" fill="#fff"/>
                <path id="パス_833" data-name="パス 833" d="M285.125,382.433l-3.094.354v-3.361l3.094-.423Z" transform="translate(-281.461 -376.768)" fill="#a6a7a7"/>
                <path id="パス_834" data-name="パス 834" d="M301.013,380.273l-3.246.371V377.2l3.246-.444Z" transform="translate(-293.61 -375.036)" fill="#a6a7a7"/>
                <path id="パス_835" data-name="パス 835" d="M317.685,378l-3.409.39v-3.526l3.409-.467Z" transform="translate(-306.356 -373.216)" fill="#a6a7a7"/>
                <path id="パス_836" data-name="パス 836" d="M335.2,375.62l-3.585.41v-3.615l3.585-.49Z" transform="translate(-319.743 -371.304)" fill="#a6a7a7"/>
              </g>
              <g id="グループ_648" data-name="グループ 648" transform="translate(15.725 8.22)">
                <path id="パス_837" data-name="パス 837" d="M279.53,342.865v-4.3l16.152-3.011v4.763Z" transform="translate(-279.53 -335.557)" fill="#fff"/>
                <path id="パス_838" data-name="パス 838" d="M285.125,351.334l-3.094.5v-3.361l3.094-.566Z" transform="translate(-281.461 -345.09)" fill="#a6a7a7"/>
                <path id="パス_839" data-name="パス 839" d="M301.013,348.413l-3.246.522v-3.441l3.246-.595Z" transform="translate(-293.61 -342.769)" fill="#a6a7a7"/>
                <path id="パス_840" data-name="パス 840" d="M317.685,345.344l-3.409.548v-3.526l3.409-.625Z" transform="translate(-306.356 -340.331)" fill="#a6a7a7"/>
                <path id="パス_841" data-name="パス 841" d="M335.2,342.119l-3.585.577v-3.614l3.585-.657Z" transform="translate(-319.743 -337.77)" fill="#a6a7a7"/>
              </g>
              <g id="グループ_649" data-name="グループ 649" transform="translate(0 4.51)">
                <path id="パス_842" data-name="パス 842" d="M210.545,324.387V322.3l12.779-3.018v2.287Z" transform="translate(-210.545 -319.281)" fill="#fff"/>
                <path id="パス_843" data-name="パス 843" d="M215.015,332.66l-2.468.552v-1.243l2.468-.575Z" transform="translate(-212.091 -328.633)" fill="#a6a7a7"/>
                <path id="パス_844" data-name="パス 844" d="M227.674,329.653l-2.576.576v-1.27l2.576-.6Z" transform="translate(-221.781 -326.291)" fill="#a6a7a7"/>
                <path id="パス_845" data-name="パス 845" d="M240.886,326.513l-2.691.6v-1.3l2.691-.627Z" transform="translate(-231.892 -323.844)" fill="#a6a7a7"/>
                <path id="パス_846" data-name="パス 846" d="M254.69,323.23l-2.813.629v-1.326l2.813-.656Z" transform="translate(-242.455 -321.286)" fill="#a6a7a7"/>
              </g>
              <g id="グループ_650" data-name="グループ 650" transform="translate(15.725)">
                <path id="パス_847" data-name="パス 847" d="M279.53,305.643v-2.334l16.152-3.814v2.587Z" transform="translate(-279.53 -299.494)" fill="#fff"/>
                <path id="パス_848" data-name="パス 848" d="M285.125,315.984l-3.094.692v-1.39l3.094-.721Z" transform="translate(-281.461 -311.13)" fill="#a6a7a7"/>
                <path id="パス_849" data-name="パス 849" d="M301.013,312.2l-3.246.726V311.5l3.246-.756Z" transform="translate(-293.61 -308.18)" fill="#a6a7a7"/>
                <path id="パス_850" data-name="パス 850" d="M317.685,308.221l-3.409.763v-1.458l3.409-.794Z" transform="translate(-306.356 -305.081)" fill="#a6a7a7"/>
                <path id="パス_851" data-name="パス 851" d="M335.2,304.04l-3.585.8v-1.495l3.585-.835Z" transform="translate(-319.743 -301.824)" fill="#a6a7a7"/>
              </g>
            </g>
          </g>
          <g id="グループ_663" data-name="グループ 663" transform="translate(36.05)">
            <path id="パス_852" data-name="パス 852" d="M363.567,287.978v41.644h12.42V297.882Z" transform="translate(-363.567 -287.978)" fill="#a59892"/>
            <g id="グループ_653" data-name="グループ 653" transform="translate(2.462 11.764)">
              <path id="パス_853" data-name="パス 853" d="M374.366,344.208v-4.621l1.4.838v4.491Z" transform="translate(-374.366 -339.587)" fill="#e0e0e0"/>
              <path id="パス_854" data-name="パス 854" d="M376.388,346.535l-.909-.471v-3.582l.909.537Z" transform="translate(-375.225 -341.822)" fill="#767676"/>
            </g>
            <g id="グループ_654" data-name="グループ 654" transform="translate(2.462 19.204)">
              <path id="パス_855" data-name="パス 855" d="M374.366,376.847v-4.621l1.4.629v4.491Z" transform="translate(-374.366 -372.227)" fill="#e0e0e0"/>
              <path id="パス_856" data-name="パス 856" d="M376.388,378.872l-.909-.335v-3.582l.909.4Z" transform="translate(-375.225 -374.333)" fill="#767676"/>
            </g>
            <g id="グループ_655" data-name="グループ 655" transform="translate(2.462 4.324)">
              <path id="パス_857" data-name="パス 857" d="M374.366,311.569v-4.621l1.4,1.047v4.491Z" transform="translate(-374.366 -306.948)" fill="#e0e0e0"/>
              <path id="パス_858" data-name="パス 858" d="M376.388,314.2l-.909-.607V310.01l.909.673Z" transform="translate(-375.225 -309.312)" fill="#767676"/>
            </g>
            <g id="グループ_656" data-name="グループ 656" transform="translate(2.462 26.644)">
              <path id="パス_859" data-name="パス 859" d="M374.366,409.487v-4.621l1.4.421v4.491Z" transform="translate(-374.366 -404.866)" fill="#e0e0e0"/>
              <path id="パス_860" data-name="パス 860" d="M376.388,411.209l-.909-.2v-3.582l.909.265Z" transform="translate(-375.225 -406.844)" fill="#767676"/>
            </g>
            <g id="グループ_657" data-name="グループ 657" transform="translate(2.462 34.084)">
              <path id="パス_861" data-name="パス 861" d="M374.366,442.125V437.5l1.4.212v4.491Z" transform="translate(-374.366 -437.504)" fill="#e0e0e0"/>
              <path id="パス_862" data-name="パス 862" d="M376.388,443.545l-.909-.063V439.9l.909.129Z" transform="translate(-375.225 -439.354)" fill="#767676"/>
            </g>
            <g id="グループ_658" data-name="グループ 658" transform="translate(9.844 16.198)">
              <path id="パス_863" data-name="パス 863" d="M407.769,363.488v-3.841l-1.016-.61v3.935Z" transform="translate(-406.752 -359.037)" fill="#e0e0e0"/>
              <path id="パス_864" data-name="パス 864" d="M407.531,364.455l.662.343v-3.005l-.662-.391Z" transform="translate(-407.354 -360.863)" fill="#767676"/>
            </g>
            <g id="グループ_659" data-name="グループ 659" transform="translate(9.844 22.533)">
              <path id="パス_865" data-name="パス 865" d="M407.769,391.131v-3.841l-1.016-.459v3.935Z" transform="translate(-406.752 -386.832)" fill="#e0e0e0"/>
              <path id="パス_866" data-name="パス 866" d="M407.531,392.135l.662.244v-3.005l-.662-.292Z" transform="translate(-407.354 -388.569)" fill="#767676"/>
            </g>
            <g id="グループ_660" data-name="グループ 660" transform="translate(9.844 9.861)">
              <path id="パス_867" data-name="パス 867" d="M407.769,335.843V332l-1.016-.762v3.935Z" transform="translate(-406.752 -331.24)" fill="#e0e0e0"/>
              <path id="パス_868" data-name="パス 868" d="M407.531,336.776l.662.442v-3.005l-.662-.49Z" transform="translate(-407.354 -333.157)" fill="#767676"/>
            </g>
            <g id="グループ_661" data-name="グループ 661" transform="translate(9.844 28.869)">
              <path id="パス_869" data-name="パス 869" d="M407.769,418.776v-3.841l-1.016-.307v3.935Z" transform="translate(-406.752 -414.629)" fill="#e0e0e0"/>
              <path id="パス_870" data-name="パス 870" d="M407.531,419.815l.662.145v-3.005l-.662-.193Z" transform="translate(-407.354 -416.275)" fill="#767676"/>
            </g>
            <g id="グループ_662" data-name="グループ 662" transform="translate(9.844 35.206)">
              <path id="パス_871" data-name="パス 871" d="M407.769,446.421V442.58l-1.016-.154v3.935Z" transform="translate(-406.752 -442.426)" fill="#e0e0e0"/>
              <path id="パス_872" data-name="パス 872" d="M407.531,447.5l.662.046v-3.005l-.662-.094Z" transform="translate(-407.354 -443.983)" fill="#767676"/>
            </g>
          </g>
        </g>
        <g id="グループ_669" data-name="グループ 669" transform="translate(0 32.54)">
          <path id="パス_873" data-name="パス 873" d="M81.287,437.447l-24.37,1.5,4.527.225,24.061-1.366Z" transform="translate(-56.913 -435.916)" fill="#998d87"/>
          <g id="グループ_665" data-name="グループ 665" transform="translate(22.463 1.752)">
            <path id="パス_874" data-name="パス 874" d="M155.446,445.768h1.548v-7.353l-1.548.095Z" transform="translate(-155.446 -438.415)" fill="#ebebeb"/>
            <path id="パス_875" data-name="パス 875" d="M162.9,445.768h-.666v-7.353l.666.057Z" transform="translate(-160.689 -438.415)" fill="#bdbebf"/>
          </g>
          <g id="グループ_668" data-name="グループ 668" transform="translate(0.975 2.998)">
            <g id="グループ_666" data-name="グループ 666">
              <path id="パス_876" data-name="パス 876" d="M61.177,443.949v6.04h1.092v-6.106Z" transform="translate(-61.177 -443.884)" fill="#ebebeb"/>
            </g>
            <g id="グループ_667" data-name="グループ 667" transform="translate(1.092)">
              <path id="パス_877" data-name="パス 877" d="M66.457,449.99h-.489v-6.106l.489.042Z" transform="translate(-65.967 -443.884)" fill="#bdbebf"/>
            </g>
          </g>
          <path id="パス_878" data-name="パス 878" d="M81.278,432.262l-24.375,1.5,0-1.241,24.374-1.794Z" transform="translate(-56.899 -430.73)" fill="#f4e0d6"/>
          <path id="パス_879" data-name="パス 879" d="M168.047,432.624l-4.218-.362V430.73l4.218.439Z" transform="translate(-139.455 -430.73)" fill="#b0a39c"/>
        </g>
      </g>
    </g>
  </g>
</svg>
